<mxfile host="app.diagrams.net" modified="2023-04-22T12:30:04.301Z" agent="Mozilla/5.0 (Windows NT 10.0; Win64; x64) AppleWebKit/537.36 (KHTML, like Gecko) Chrome/112.0.0.0 Safari/537.36 Edg/112.0.1722.48" etag="DyvM0zjHHaPbtoE8LrIz" version="21.2.1" type="device">
  <diagram name="Page-1" id="OC5uPHnRByubbi-D-e1y">
    <mxGraphModel dx="685" dy="395" grid="1" gridSize="10" guides="1" tooltips="1" connect="1" arrows="1" fold="1" page="1" pageScale="1" pageWidth="850" pageHeight="1100" math="0" shadow="0">
      <root>
        <mxCell id="0" />
        <mxCell id="1" parent="0" />
        <mxCell id="fnsjhJo49HtyQBwh2Kou-1" value="User" style="shape=umlLifeline;perimeter=lifelinePerimeter;whiteSpace=wrap;html=1;container=1;dropTarget=0;collapsible=0;recursiveResize=0;outlineConnect=0;portConstraint=eastwest;newEdgeStyle={&quot;edgeStyle&quot;:&quot;elbowEdgeStyle&quot;,&quot;elbow&quot;:&quot;vertical&quot;,&quot;curved&quot;:0,&quot;rounded&quot;:0};" vertex="1" parent="1">
          <mxGeometry x="180" y="40" width="100" height="560" as="geometry" />
        </mxCell>
        <mxCell id="fnsjhJo49HtyQBwh2Kou-4" value="" style="html=1;points=[];perimeter=orthogonalPerimeter;outlineConnect=0;targetShapes=umlLifeline;portConstraint=eastwest;newEdgeStyle={&quot;edgeStyle&quot;:&quot;elbowEdgeStyle&quot;,&quot;elbow&quot;:&quot;vertical&quot;,&quot;curved&quot;:0,&quot;rounded&quot;:0};" vertex="1" parent="fnsjhJo49HtyQBwh2Kou-1">
          <mxGeometry x="45" y="60" width="10" height="430" as="geometry" />
        </mxCell>
        <mxCell id="fnsjhJo49HtyQBwh2Kou-2" value="System" style="shape=umlLifeline;perimeter=lifelinePerimeter;whiteSpace=wrap;html=1;container=1;dropTarget=0;collapsible=0;recursiveResize=0;outlineConnect=0;portConstraint=eastwest;newEdgeStyle={&quot;edgeStyle&quot;:&quot;elbowEdgeStyle&quot;,&quot;elbow&quot;:&quot;vertical&quot;,&quot;curved&quot;:0,&quot;rounded&quot;:0};" vertex="1" parent="1">
          <mxGeometry x="540" y="40" width="100" height="560" as="geometry" />
        </mxCell>
        <mxCell id="fnsjhJo49HtyQBwh2Kou-3" value="" style="html=1;points=[];perimeter=orthogonalPerimeter;outlineConnect=0;targetShapes=umlLifeline;portConstraint=eastwest;newEdgeStyle={&quot;edgeStyle&quot;:&quot;elbowEdgeStyle&quot;,&quot;elbow&quot;:&quot;vertical&quot;,&quot;curved&quot;:0,&quot;rounded&quot;:0};" vertex="1" parent="fnsjhJo49HtyQBwh2Kou-2">
          <mxGeometry x="45" y="40" width="10" height="450" as="geometry" />
        </mxCell>
        <mxCell id="fnsjhJo49HtyQBwh2Kou-7" value="" style="endArrow=classic;html=1;rounded=0;" edge="1" parent="1">
          <mxGeometry width="50" height="50" relative="1" as="geometry">
            <mxPoint x="580" y="130" as="sourcePoint" />
            <mxPoint x="240" y="130" as="targetPoint" />
          </mxGeometry>
        </mxCell>
        <mxCell id="fnsjhJo49HtyQBwh2Kou-8" value="1.1 Latest comics" style="text;html=1;align=center;verticalAlign=middle;resizable=0;points=[];autosize=1;strokeColor=none;fillColor=none;" vertex="1" parent="1">
          <mxGeometry x="350" y="100" width="120" height="30" as="geometry" />
        </mxCell>
        <mxCell id="fnsjhJo49HtyQBwh2Kou-9" value="" style="endArrow=classic;html=1;rounded=0;" edge="1" parent="1">
          <mxGeometry width="50" height="50" relative="1" as="geometry">
            <mxPoint x="580" y="170" as="sourcePoint" />
            <mxPoint x="240" y="170" as="targetPoint" />
          </mxGeometry>
        </mxCell>
        <mxCell id="fnsjhJo49HtyQBwh2Kou-10" value="1.2 Trending Comics" style="text;html=1;align=center;verticalAlign=middle;resizable=0;points=[];autosize=1;strokeColor=none;fillColor=none;" vertex="1" parent="1">
          <mxGeometry x="345" y="140" width="130" height="30" as="geometry" />
        </mxCell>
        <mxCell id="fnsjhJo49HtyQBwh2Kou-11" value="" style="endArrow=classic;html=1;rounded=0;" edge="1" parent="1">
          <mxGeometry width="50" height="50" relative="1" as="geometry">
            <mxPoint x="580" y="210" as="sourcePoint" />
            <mxPoint x="240" y="210" as="targetPoint" />
          </mxGeometry>
        </mxCell>
        <mxCell id="fnsjhJo49HtyQBwh2Kou-12" value="1.3 Popular Comcis" style="text;html=1;align=center;verticalAlign=middle;resizable=0;points=[];autosize=1;strokeColor=none;fillColor=none;" vertex="1" parent="1">
          <mxGeometry x="345" y="180" width="130" height="30" as="geometry" />
        </mxCell>
        <mxCell id="fnsjhJo49HtyQBwh2Kou-14" value="" style="endArrow=classic;html=1;rounded=0;" edge="1" parent="1">
          <mxGeometry width="50" height="50" relative="1" as="geometry">
            <mxPoint x="240" y="260" as="sourcePoint" />
            <mxPoint x="580" y="260" as="targetPoint" />
          </mxGeometry>
        </mxCell>
        <mxCell id="fnsjhJo49HtyQBwh2Kou-16" value="" style="endArrow=classic;html=1;rounded=0;" edge="1" parent="1">
          <mxGeometry width="50" height="50" relative="1" as="geometry">
            <mxPoint x="580" y="299.5" as="sourcePoint" />
            <mxPoint x="240" y="299.5" as="targetPoint" />
          </mxGeometry>
        </mxCell>
        <mxCell id="fnsjhJo49HtyQBwh2Kou-18" value="1.5 Search results" style="text;html=1;align=center;verticalAlign=middle;resizable=0;points=[];autosize=1;strokeColor=none;fillColor=none;" vertex="1" parent="1">
          <mxGeometry x="355" y="270" width="120" height="30" as="geometry" />
        </mxCell>
        <mxCell id="fnsjhJo49HtyQBwh2Kou-19" value="" style="endArrow=classic;html=1;rounded=0;" edge="1" parent="1">
          <mxGeometry width="50" height="50" relative="1" as="geometry">
            <mxPoint x="240" y="360" as="sourcePoint" />
            <mxPoint x="580" y="360" as="targetPoint" />
          </mxGeometry>
        </mxCell>
        <mxCell id="fnsjhJo49HtyQBwh2Kou-21" value="" style="endArrow=classic;html=1;rounded=0;" edge="1" parent="1">
          <mxGeometry width="50" height="50" relative="1" as="geometry">
            <mxPoint x="580" y="399.5" as="sourcePoint" />
            <mxPoint x="240" y="399.5" as="targetPoint" />
          </mxGeometry>
        </mxCell>
        <mxCell id="fnsjhJo49HtyQBwh2Kou-22" value="1.7 Show comic details" style="text;html=1;align=center;verticalAlign=middle;resizable=0;points=[];autosize=1;strokeColor=none;fillColor=none;" vertex="1" parent="1">
          <mxGeometry x="340" y="370" width="150" height="30" as="geometry" />
        </mxCell>
        <mxCell id="fnsjhJo49HtyQBwh2Kou-23" value="" style="endArrow=classic;html=1;rounded=0;" edge="1" parent="1">
          <mxGeometry width="50" height="50" relative="1" as="geometry">
            <mxPoint x="240" y="450" as="sourcePoint" />
            <mxPoint x="580" y="450" as="targetPoint" />
          </mxGeometry>
        </mxCell>
        <mxCell id="fnsjhJo49HtyQBwh2Kou-25" value="" style="endArrow=classic;html=1;rounded=0;" edge="1" parent="1">
          <mxGeometry width="50" height="50" relative="1" as="geometry">
            <mxPoint x="580" y="489.5" as="sourcePoint" />
            <mxPoint x="240" y="489.5" as="targetPoint" />
          </mxGeometry>
        </mxCell>
        <mxCell id="fnsjhJo49HtyQBwh2Kou-26" value="1.9 Issue-page images" style="text;html=1;align=center;verticalAlign=middle;resizable=0;points=[];autosize=1;strokeColor=none;fillColor=none;" vertex="1" parent="1">
          <mxGeometry x="345" y="460" width="140" height="30" as="geometry" />
        </mxCell>
        <mxCell id="fnsjhJo49HtyQBwh2Kou-27" value="1.8 Read comics" style="text;html=1;align=center;verticalAlign=middle;resizable=0;points=[];autosize=1;strokeColor=none;fillColor=none;" vertex="1" parent="1">
          <mxGeometry x="355" y="420" width="110" height="30" as="geometry" />
        </mxCell>
        <mxCell id="fnsjhJo49HtyQBwh2Kou-28" value="" style="shape=image;html=1;verticalAlign=top;verticalLabelPosition=bottom;labelBackgroundColor=#ffffff;imageAspect=0;aspect=fixed;image=https://cdn0.iconfinder.com/data/icons/evericons-16px/16/x-128.png" vertex="1" parent="1">
          <mxGeometry x="208" y="580" width="44" height="44" as="geometry" />
        </mxCell>
        <mxCell id="fnsjhJo49HtyQBwh2Kou-30" value="" style="shape=image;html=1;verticalAlign=top;verticalLabelPosition=bottom;labelBackgroundColor=#ffffff;imageAspect=0;aspect=fixed;image=https://cdn0.iconfinder.com/data/icons/evericons-16px/16/x-128.png" vertex="1" parent="1">
          <mxGeometry x="568" y="580" width="44" height="44" as="geometry" />
        </mxCell>
        <mxCell id="fnsjhJo49HtyQBwh2Kou-31" value="1.4 Search Comics" style="text;html=1;align=center;verticalAlign=middle;resizable=0;points=[];autosize=1;strokeColor=none;fillColor=none;" vertex="1" parent="1">
          <mxGeometry x="355" y="230" width="120" height="30" as="geometry" />
        </mxCell>
        <mxCell id="fnsjhJo49HtyQBwh2Kou-32" value="1.6 View comics" style="text;html=1;align=center;verticalAlign=middle;resizable=0;points=[];autosize=1;strokeColor=none;fillColor=none;" vertex="1" parent="1">
          <mxGeometry x="360" y="330" width="110" height="30" as="geometry" />
        </mxCell>
      </root>
    </mxGraphModel>
  </diagram>
</mxfile>
